<?xml version="1.0" encoding="UTF-8"?>
<svg width="100" height="100" version="1.1" viewBox="0 0 100 100" xmlns="http://www.w3.org/2000/svg">
 <path fill="#0085cc" d="m88.254 5.8329c-2.1049 0-3.8127 0.7687-5.1211 2.3047l2.1328 1.6641c0.384-0.42667 0.80466-0.74761 1.2598-0.96094 0.45511-0.22756 0.92465-0.3418 1.4082-0.3418 0.512 0 0.92344 0.10698 1.2363 0.32031 0.31288 0.21333 0.4707 0.51249 0.4707 0.89648 0 0.32711-0.10698 0.60448-0.32031 0.83203-0.19911 0.21333-0.52731 0.47618-0.98242 0.78906-0.45511 0.31289-0.83219 0.61204-1.1309 0.89648-0.29867 0.27022-0.55425 0.63278-0.76758 1.0879-0.21333 0.45511-0.32031 1.0171-0.32031 1.6855v0.55469h3.0723v-0.44727c0-0.512 0.14329-0.9254 0.42773-1.2383 0.28444-0.32711 0.71767-0.68241 1.3008-1.0664 0.48355-0.32711 0.87516-0.619 1.1738-0.875 0.29866-0.27022 0.54699-0.61099 0.74609-1.0234 0.21333-0.41244 0.32031-0.91103 0.32031-1.4941 0-0.65422-0.19217-1.2506-0.57617-1.791-0.36978-0.54044-0.92451-0.97562-1.6641-1.3027-0.73955-0.32711-1.6278-0.49023-2.666-0.49023zm-51.773 0.36523 0.50586 3.8945-3.4941-1.6543-1.0117 3.0938 3.8125 0.69336-2.666 2.7988 2.6934 1.9746 1.8125-3.4395 1.8672 3.4121 2.6934-1.9727-2.7207-2.8008 3.8398-0.69336-1.0391-3.0938-3.4668 1.7344 0.50586-3.9473zm51.219 11.305c-0.52622 0-0.98124 0.19217-1.3652 0.57617-0.36978 0.36977-0.55469 0.81753-0.55469 1.3438 0 0.54044 0.18491 1.0027 0.55469 1.3867 0.384 0.36977 0.83902 0.55469 1.3652 0.55469 0.54044 0 0.99546-0.19217 1.3652-0.57617 0.384-0.384 0.57617-0.83902 0.57617-1.3652 0-0.52622-0.19218-0.97398-0.57617-1.3438-0.384-0.384-0.83901-0.57617-1.3652-0.57617zm-31.088 11.527v15.137h4.2383v-1.873h-1.8398v-11.375h1.8398v-1.8887zm8.832 0v1.8887h1.8398v11.359h-1.8398v1.8887h4.2383v-15.137zm-54.217 3.3418-5.041 8.4531h4.1602l2.7734-5.3066 2.8809 5.3066h4.1074l-5.041-8.4531zm27.027 23.461c-2.1049 0-3.8127 0.76869-5.1211 2.3047l2.1328 1.6641c0.384-0.42666 0.80466-0.74761 1.2598-0.96094 0.45511-0.22756 0.92465-0.3418 1.4082-0.3418 0.512 0 0.92344 0.10698 1.2363 0.32031 0.31289 0.21333 0.4707 0.51249 0.4707 0.89648 0 0.32711-0.10698 0.60448-0.32031 0.83203-0.19911 0.21333-0.52731 0.47618-0.98242 0.78906-0.45511 0.31289-0.83219 0.61204-1.1309 0.89648-0.29867 0.27022-0.55425 0.63278-0.76758 1.0879-0.21333 0.45511-0.32031 1.0171-0.32031 1.6855v0.55469h3.0723v-0.44726c0-0.512 0.14329-0.9254 0.42773-1.2383 0.28444-0.32711 0.71767-0.68241 1.3008-1.0664 0.48355-0.32711 0.87516-0.619 1.1738-0.875 0.29866-0.27022 0.54698-0.61099 0.74609-1.0234 0.21333-0.41244 0.32031-0.91103 0.32031-1.4941 0-0.65422-0.19217-1.2506-0.57617-1.791-0.36978-0.54044-0.92451-0.97562-1.6641-1.3027-0.73955-0.32711-1.6278-0.49024-2.666-0.49024zm48.227 0.36524 0.50586 3.8945-3.4941-1.6543-1.0117 3.0938 3.8125 0.69336-2.666 2.7988 2.6934 1.9746 1.8125-3.4395 1.8672 3.4121 2.6934-1.9727-2.7207-2.8008 3.8398-0.69336-1.0391-3.0938-3.4668 1.7344 0.50586-3.9473zm-48.781 11.305c-0.52622 0-0.98124 0.19217-1.3652 0.57617-0.36978 0.36978-0.55469 0.81753-0.55469 1.3438 0 0.54044 0.18491 1.0027 0.55469 1.3867 0.384 0.36978 0.83902 0.55469 1.3652 0.55469 0.54044 0 0.99546-0.19217 1.3652-0.57617 0.384-0.384 0.57617-0.83901 0.57617-1.3652 0-0.52622-0.19217-0.97398-0.57617-1.3438-0.384-0.384-0.83901-0.57617-1.3652-0.57617zm-31.088 11.527v15.137h4.2383v-1.873h-1.8398v-11.375h1.8398v-1.8887zm8.832 0v1.8887h1.8398v11.359h-1.8398v1.8887h4.2383v-15.137zm45.783 3.3418-5.041 8.4531h4.1602l2.7734-5.3066 2.8809 5.3066h4.1074l-5.041-8.4531z" />
</svg>
