<?xml version="1.0" encoding="UTF-8" standalone="no"?>
<svg
   viewBox="0 0 1400 220"
   version="1.1"
   id="svg1"
   sodipodi:docname="pcre2-header-light.svg"
   inkscape:version="1.2.2 (732a01da63, 2022-12-09)"
   inkscape:export-filename="pcre2-header-light.png"
   inkscape:export-xdpi="218.18182"
   inkscape:export-ydpi="218.18182"
   width="1400"
   height="220"
   xml:space="preserve"
   xmlns:inkscape="http://www.inkscape.org/namespaces/inkscape"
   xmlns:sodipodi="http://sodipodi.sourceforge.net/DTD/sodipodi-0.dtd"
   xmlns="http://www.w3.org/2000/svg"
   xmlns:svg="http://www.w3.org/2000/svg"><defs
     id="defs1"><rect
       x="-244.36363"
       y="-245.75206"
       width="1017.719"
       height="219.50206"
       id="rect3" /><rect
       x="213.12396"
       y="199.93388"
       width="322.4628"
       height="192.99174"
       id="rect2" /></defs><sodipodi:namedview
     id="namedview1"
     pagecolor="#ffffff"
     bordercolor="#000000"
     borderopacity="0.25"
     inkscape:showpageshadow="2"
     inkscape:pageopacity="0.0"
     inkscape:pagecheckerboard="0"
     inkscape:deskcolor="#d1d1d1"
     inkscape:zoom="1.0185705"
     inkscape:cx="869.84652"
     inkscape:cy="435.90503"
     inkscape:window-width="3818"
     inkscape:window-height="2032"
     inkscape:window-x="0"
     inkscape:window-y="0"
     inkscape:window-maximized="0"
     inkscape:current-layer="svg1"
     showguides="false"
     showgrid="true"><inkscape:grid
       id="grid19"
       units="px"
       originx="0"
       originy="0"
       spacingx="26.25"
       spacingy="26.25"
       empcolor="#0099e5"
       empopacity="0.30196078"
       color="#0099e5"
       opacity="0.14901961"
       empspacing="5"
       enabled="true"
       visible="true" /></sodipodi:namedview><rect
     width="1400"
     height="220"
     fill="#f7df1e"
     id="rect1"
     style="fill:#0085cc;fill-opacity:1;stroke-width:0.880916"
     x="0"
     y="0" /><path
     id="text55"
     style="font-weight:800;font-size:135.694px;font-family:'Fira Sans';-inkscape-font-specification:'Fira Sans, Ultra-Bold';letter-spacing:12.5371px;fill:#006094;fill-opacity:1;stroke-width:2.50741"
     d="M 78.65375,60.743581 53.87055,155.05022 H 76.43891 L 101.11859,60.743581 Z" /><path
     d="m 165.08766,60.742891 h -32.29517 v 94.307329 h 25.10339 v -30.39546 h 9.63428 c 22.11812,0 37.58723,-10.71982 37.58723,-32.702249 0,-20.89688 -15.19772,-31.20962 -40.02973,-31.20962 z m 0.1357,46.000269 h -7.32748 V 78.383111 h 6.7847 c 10.04136,0 14.79065,4.74929 14.79065,13.70509 0,10.448439 -5.15637,14.654959 -14.24787,14.654959 z"
     id="path682"
     style="font-weight:800;font-size:135.694px;font-family:'Fira Sans';-inkscape-font-specification:'Fira Sans, Ultra-Bold';letter-spacing:12.5371px;fill:#fafafa;stroke-width:2.50741" /><path
     d="m 267.58987,58.300401 c -25.51047,0 -43.82916,17.91161 -43.82916,49.392609 0,32.43087 17.50453,49.7997 44.23625,49.7997 13.02662,0 23.61075,-5.97053 30.25976,-12.61954 l -11.12691,-14.11218 c -5.69915,4.47791 -10.99121,7.73456 -18.0473,7.73456 -11.80538,0 -19.26855,-9.49858 -19.26855,-30.80254 0,-21.575339 7.59886,-31.073919 18.99716,-31.073919 6.37762,0 11.3983,2.44249 16.55467,6.37762 l 11.80538,-13.97649 c -8.00595,-6.7847 -17.23314,-10.71982 -29.5813,-10.71982 z"
     id="path679"
     style="font-weight:800;font-size:135.694px;font-family:'Fira Sans';-inkscape-font-specification:'Fira Sans, Ultra-Bold';letter-spacing:12.5371px;fill:#fafafa;stroke-width:2.50741" /><path
     d="m 369.00665,155.05022 h 27.95297 l -23.47507,-39.35126 c 11.80538,-6.24192 17.36884,-13.43371 17.36884,-25.646169 0,-20.08271 -13.29802,-29.3099 -39.62265,-29.3099 h -32.70226 v 94.307329 h 25.10339 v -34.73766 h 6.9204 z M 343.63187,78.247421 h 7.05609 c 9.49858,0 14.38357,3.66373 14.38357,11.80537 0,9.0915 -4.47791,13.162319 -13.02663,13.162319 h -8.41303 z"
     id="path676"
     style="font-weight:800;font-size:135.694px;font-family:'Fira Sans';-inkscape-font-specification:'Fira Sans, Ultra-Bold';letter-spacing:12.5371px;fill:#fafafa;stroke-width:2.50741" /><path
     d="m 475.03702,60.742891 h -59.84106 v 94.307329 h 59.43398 v -17.77591 h -34.33059 v -21.43966 h 28.08866 V 98.601521 h -28.08866 v -20.08272 h 32.15948 z"
     id="path673"
     style="font-weight:800;font-size:135.694px;font-family:'Fira Sans';-inkscape-font-specification:'Fira Sans, Ultra-Bold';letter-spacing:12.5371px;fill:#fafafa;stroke-width:2.50741" /><path
     d="m 524.07593,61.014281 c -14.38356,0 -25.23908,6.649 -32.56656,16.41897 l 13.97648,11.2626 c 5.02068,-6.37761 9.63428,-9.36288 16.01189,-9.36288 6.64901,0 10.71983,4.07082 10.71983,10.85552 0,10.312739 -6.92039,18.590079 -37.31585,48.035669 v 16.82606 h 61.46938 l 2.57819,-18.31869 h -36.63738 c 28.90282,-25.51047 34.60197,-35.68752 34.60197,-49.121229 0,-14.24787 -11.2626,-26.59602 -32.83795,-26.59602 z"
     id="path670"
     style="font-weight:800;font-size:135.694px;font-family:'Fira Sans';-inkscape-font-specification:'Fira Sans, Ultra-Bold';letter-spacing:30px;fill:#fafafa;stroke-width:2.50741" /><path
     d="m 608.62491,131.30377 c -7.32747,0 -13.16232,5.97054 -13.16232,13.16232 0,7.19178 5.83485,13.02662 13.16232,13.02662 7.32748,0 13.16232,-5.83484 13.16232,-13.02662 0,-7.19178 -5.83484,-13.16232 -13.16232,-13.16232 z"
     id="path667"
     style="font-weight:800;font-size:135.694px;font-family:'Fira Sans';-inkscape-font-specification:'Fira Sans, Ultra-Bold';letter-spacing:12.5371px;fill:#006094;stroke-width:2.50741" /><path
     d="m 691.45164,83.403791 -6.24193,-18.99716 -16.82605,8.9558 3.12096,-19.13285 h -20.3541 l 3.12096,18.99716 -16.82606,-8.68442 -6.24192,18.99716 18.72577,2.71388 -13.4337,13.29801 16.55466,12.076769 8.27734,-17.097439 8.54872,16.961749 16.55467,-12.076769 -13.7051,-13.16232 z"
     id="path664"
     style="font-weight:800;font-size:135.694px;font-family:'Fira Sans';-inkscape-font-specification:'Fira Sans, Ultra-Bold';letter-spacing:12.5371px;fill:#006094;stroke-width:2.50741" /><path
     id="text47"
     style="font-weight:800;font-size:135.694px;font-family:'Fira Sans';-inkscape-font-specification:'Fira Sans, Ultra-Bold';letter-spacing:12.5371px;fill:#006094;fill-opacity:1;stroke-width:2.50741"
     d="m 734.03263,60.743581 -24.7832,94.306639 h 22.5703 l 24.6778,-94.306639 z" /><path
     d="m 912.92766,60.756213 h -10.86521 v 33.614251 h 7.95489 v -11.20475 h 3.6379 c 7.76087,0 13.29049,-3.637904 13.29049,-11.447275 0,-7.372823 -5.3356,-10.962226 -14.01807,-10.962226 z m 0.0485,16.685863 h -2.95883 V 66.43135 h 2.81331 c 3.92894,0 5.91766,1.697686 5.91766,5.287089 0,4.219968 -2.18274,5.723637 -5.77214,5.723637 z"
     id="path781"
     style="font-weight:bold;font-size:74.6667px;font-family:'Fira Sans';-inkscape-font-specification:'Fira Sans, Bold';text-align:center;letter-spacing:0px;white-space:pre;fill:#fafafa;stroke-width:0.649626" /><path
     d="m 952.50806,80.982972 c 0,-8.342929 -4.511,-13.193469 -11.88382,-13.193469 -7.80937,0 -12.02934,6.111678 -12.02934,13.824041 0,8.051896 4.36549,13.58151 12.95094,13.58151 4.17147,0 7.46984,-1.552171 10.04062,-3.589397 l -3.15285,-4.268476 c -2.23125,1.55217 -4.07445,2.279751 -6.16018,2.279751 -3.15286,0 -5.3356,-1.261138 -5.82066,-5.869153 h 15.90978 c 0.097,-0.776089 0.14551,-1.940218 0.14551,-2.764807 z m -7.51834,-1.843209 h -8.58545 c 0.38804,-4.656517 1.8432,-6.257195 4.41399,-6.257195 3.05584,0 4.12296,2.425267 4.17146,5.917661 z"
     id="path778"
     style="font-weight:bold;font-size:74.6667px;font-family:'Fira Sans';-inkscape-font-specification:'Fira Sans, Bold';text-align:center;letter-spacing:0px;white-space:pre;fill:#fafafa;stroke-width:0.649626" /><path
     d="m 970.84315,67.886511 c -2.95883,0 -5.48111,2.134235 -6.64524,5.723638 l -0.67907,-4.996057 h -6.64525 v 25.756372 h 7.66386 V 81.41952 c 0.8731,-3.831927 2.18274,-6.111685 5.3356,-6.111685 0.82458,0 1.50366,0.145516 2.32825,0.33954 l 1.21263,-7.421324 c -0.87309,-0.242531 -1.60067,-0.33954 -2.57078,-0.33954 z"
     id="path775"
     style="font-weight:bold;font-size:74.6667px;font-family:'Fira Sans';-inkscape-font-specification:'Fira Sans, Bold';text-align:center;letter-spacing:0px;white-space:pre;fill:#fafafa;stroke-width:0.649626" /><path
     d="m 983.06648,95.195054 c 1.89171,0 3.54088,-0.388041 4.65651,-0.873097 l -1.45516,-5.432606 c -0.33954,0.145517 -0.77609,0.242525 -1.26114,0.242525 -0.9216,0 -1.35815,-0.533557 -1.35815,-1.600678 v -29.97634 l -7.66386,0.824596 v 29.442777 c 0,4.705024 2.6193,7.372823 7.0818,7.372823 z"
     id="path772"
     style="font-weight:bold;font-size:74.6667px;font-family:'Fira Sans';-inkscape-font-specification:'Fira Sans, Bold';text-align:center;letter-spacing:0px;white-space:pre;fill:#fafafa;stroke-width:0.649626" /><path
     d="M 989.90579,82.147101 H 1005.379 V 76.22944 h -15.47321 z"
     id="path769"
     style="font-weight:bold;font-size:74.6667px;font-family:'Fira Sans';-inkscape-font-specification:'Fira Sans, Bold';text-align:center;letter-spacing:0px;white-space:pre;fill:#fafafa;stroke-width:0.649626" /><path
     d="m 1024.3931,59.931624 c -8.731,0 -15.2792,6.305702 -15.2792,17.55896 0,11.495776 6.1602,17.70447 15.3762,17.70447 4.6565,0 8.2944,-2.085734 10.5257,-4.316978 l -3.5409,-4.559508 c -1.9887,1.503663 -3.9289,2.7163 -6.5967,2.7163 -4.4625,0 -7.4214,-3.443881 -7.4214,-11.544284 0,-8.24592 3.0074,-11.689806 7.3243,-11.689806 2.2798,0 4.1715,0.873097 6.0632,2.328258 l 3.7834,-4.511001 c -2.8133,-2.376766 -5.8691,-3.686411 -10.2346,-3.686411 z"
     id="path766"
     style="font-weight:bold;font-size:74.6667px;font-family:'Fira Sans';-inkscape-font-specification:'Fira Sans, Bold';text-align:center;letter-spacing:0px;white-space:pre;fill:#fafafa;stroke-width:0.649626" /><path
     d="m 1049.0824,67.789503 c -7.8579,0 -12.6114,5.432605 -12.6114,13.678525 0,8.682468 4.802,13.727026 12.6114,13.727026 7.8578,0 12.6114,-5.432606 12.6114,-13.678525 0,-8.682468 -4.7536,-13.727026 -12.6114,-13.727026 z m 0,5.626622 c 3.1043,0 4.6565,2.376766 4.6565,8.100404 0,5.578121 -1.5522,8.051896 -4.6565,8.051896 -3.1044,0 -4.6566,-2.37676 -4.6566,-8.100397 0,-5.578128 1.5522,-8.051903 4.6566,-8.051903 z"
     id="path763"
     style="font-weight:bold;font-size:74.6667px;font-family:'Fira Sans';-inkscape-font-specification:'Fira Sans, Bold';text-align:center;letter-spacing:0px;white-space:pre;fill:#fafafa;stroke-width:0.649626" /><path
     d="m 1094.6774,67.789503 c -3.2983,0 -5.6751,1.358146 -7.7123,4.074452 -1.0186,-2.619291 -3.2014,-4.074452 -6.0632,-4.074452 -3.1528,0 -5.5296,1.309645 -7.4698,3.880428 l -0.5821,-3.055839 h -6.6452 v 25.756372 h 7.6638 V 76.763003 c 1.1157,-2.134241 2.3283,-3.346878 3.929,-3.346878 1.1641,0 2.1827,0.727581 2.1827,3.443887 v 17.510452 h 7.6639 V 76.763003 c 1.1156,-2.134241 2.2797,-3.346878 3.9289,-3.346878 1.1641,0 2.1342,0.727581 2.1342,3.443887 v 17.510452 h 7.6639 V 75.550366 c 0,-4.899048 -2.7163,-7.760863 -6.6938,-7.760863 z"
     id="path760"
     style="font-weight:bold;font-size:74.6667px;font-family:'Fira Sans';-inkscape-font-specification:'Fira Sans, Bold';text-align:center;letter-spacing:0px;white-space:pre;fill:#fafafa;stroke-width:0.649626" /><path
     d="m 1121.7434,67.789503 c -2.5707,0 -5.287,1.018613 -7.4213,3.686405 l -0.388,-2.861816 h -6.7423 v 36.524578 l 7.6639,-0.8246 V 92.527255 c 1.6007,1.794702 3.7349,2.667799 6.2572,2.667799 6.3542,0 10.2346,-5.820647 10.2346,-13.775534 0,-8.342928 -2.9588,-13.630017 -9.6041,-13.630017 z m -3.0073,21.778922 c -1.6007,0 -2.8133,-0.727581 -3.8804,-2.279751 V 76.423463 c 1.1156,-1.89171 2.6678,-3.007338 4.414,-3.007338 2.5707,0 4.1229,1.697693 4.1229,8.100404 0,5.772145 -1.7947,8.051896 -4.6565,8.051896 z"
     id="path757"
     style="font-weight:bold;font-size:74.6667px;font-family:'Fira Sans';-inkscape-font-specification:'Fira Sans, Bold';text-align:center;letter-spacing:0px;white-space:pre;fill:#fafafa;stroke-width:0.649626" /><path
     d="m 1156.5703,86.900633 v -9.992114 c 0,-5.966168 -3.2013,-9.119016 -10.6711,-9.119016 -2.9104,0 -6.4513,0.679073 -9.7011,1.89171 l 1.7462,5.044558 c 2.5707,-0.873097 5.093,-1.358147 6.7422,-1.358147 3.1529,0 4.3655,0.921598 4.3655,3.977444 v 1.115622 h -2.6193 c -7.7609,0 -12.0778,3.055839 -12.0778,8.682468 0,4.705024 3.2498,8.051896 8.3914,8.051896 3.0558,0 5.9177,-1.018614 7.7609,-3.831928 1.2126,2.522282 3.2013,3.443887 6.2087,3.686411 l 1.6006,-4.996056 c -1.2126,-0.436549 -1.7462,-1.16413 -1.7462,-3.152848 z m -11.5928,2.813308 c -1.8917,0 -2.9588,-1.21263 -2.9588,-3.249857 0,-2.570789 1.6492,-3.783426 5.1416,-3.783426 h 1.8917 v 4.608016 c -0.9216,1.503669 -2.3283,2.425267 -4.0745,2.425267 z"
     id="path754"
     style="font-weight:bold;font-size:74.6667px;font-family:'Fira Sans';-inkscape-font-specification:'Fira Sans, Bold';text-align:center;letter-spacing:0px;white-space:pre;fill:#fafafa;stroke-width:0.649626" /><path
     d="m 1176.3605,88.307287 c -1.0186,0.582064 -1.8917,0.824589 -2.7648,0.824589 -1.6006,0 -2.4252,-0.873097 -2.4252,-3.346871 V 73.949689 h 5.093 l 0.8246,-5.335597 h -5.9176 v -6.451218 l -7.6639,0.873097 v 5.578121 h -3.6379 v 5.335597 h 3.6379 V 85.88202 c 0,6.063171 2.7648,9.264532 8.44,9.313034 2.3282,0 5.0445,-0.679074 6.9847,-2.037227 z"
     id="path751"
     style="font-weight:bold;font-size:74.6667px;font-family:'Fira Sans';-inkscape-font-specification:'Fira Sans, Bold';text-align:center;letter-spacing:0px;white-space:pre;fill:#fafafa;stroke-width:0.649626" /><path
     d="m 1185.237,55.032576 c -2.6192,0 -4.511,1.89171 -4.511,4.365491 0,2.473775 1.8918,4.365485 4.511,4.365485 2.7163,0 4.5595,-1.89171 4.5595,-4.365485 0,-2.473781 -1.8432,-4.365491 -4.5595,-4.365491 z m 3.8805,13.581516 h -7.6639 v 25.756372 h 7.6639 z"
     id="path748"
     style="font-weight:bold;font-size:74.6667px;font-family:'Fira Sans';-inkscape-font-specification:'Fira Sans, Bold';text-align:center;letter-spacing:0px;white-space:pre;fill:#fafafa;stroke-width:0.649626" /><path
     d="m 1209.7322,67.789503 c -2.8618,0 -5.3841,1.309645 -6.9362,3.44388 V 57.554858 l -7.6639,0.824596 v 35.99101 h 6.7908 l 0.388,-2.473774 c 1.5522,2.037226 3.8804,3.298364 6.7423,3.298364 6.4027,0 10.2346,-5.723638 10.2346,-13.678525 0,-8.633961 -3.3954,-13.727026 -9.5556,-13.727026 z m -2.9103,21.827429 c -1.6492,0 -3.0558,-0.921604 -4.0259,-2.473774 V 76.423463 c 1.1156,-1.89171 2.6193,-3.007338 4.3655,-3.007338 2.4252,0 4.1714,1.552177 4.1714,8.100404 0,6.014669 -1.8432,8.100403 -4.511,8.100403 z"
     id="path745"
     style="font-weight:bold;font-size:74.6667px;font-family:'Fira Sans';-inkscape-font-specification:'Fira Sans, Bold';text-align:center;letter-spacing:0px;white-space:pre;fill:#fafafa;stroke-width:0.649626" /><path
     d="m 1230.8321,95.195054 c 1.8917,0 3.5409,-0.388041 4.6565,-0.873097 l -1.4552,-5.432606 c -0.3395,0.145517 -0.7761,0.242525 -1.2611,0.242525 -0.9216,0 -1.3582,-0.533557 -1.3582,-1.600678 v -29.97634 l -7.6638,0.824596 v 29.442777 c 0,4.705024 2.6193,7.372823 7.0818,7.372823 z"
     id="path742"
     style="font-weight:bold;font-size:74.6667px;font-family:'Fira Sans';-inkscape-font-specification:'Fira Sans, Bold';text-align:center;letter-spacing:0px;white-space:pre;fill:#fafafa;stroke-width:0.649626" /><path
     d="m 1260.5174,80.982972 c 0,-8.342929 -4.511,-13.193469 -11.8838,-13.193469 -7.8094,0 -12.0294,6.111678 -12.0294,13.824041 0,8.051896 4.3655,13.58151 12.951,13.58151 4.1715,0 7.4698,-1.552171 10.0406,-3.589397 l -3.1528,-4.268476 c -2.2313,1.55217 -4.0745,2.279751 -6.1602,2.279751 -3.1529,0 -5.3356,-1.261138 -5.8207,-5.869153 h 15.9098 c 0.097,-0.776089 0.1455,-1.940218 0.1455,-2.764807 z m -7.5183,-1.843209 h -8.5855 c 0.3881,-4.656517 1.8432,-6.257195 4.414,-6.257195 3.0558,0 4.123,2.425267 4.1715,5.917661 z"
     id="path739"
     style="font-weight:bold;font-size:74.6667px;font-family:'Fira Sans';-inkscape-font-specification:'Fira Sans, Bold';text-align:center;letter-spacing:0px;white-space:pre;fill:#fafafa;stroke-width:0.649626" /><path
     d="m 920.00945,155.00222 h 8.9735 L 920.446,140.69313 c 4.36549,-1.98873 6.45122,-4.65653 6.45122,-9.07052 0,-6.98477 -4.70502,-10.23464 -13.82404,-10.23464 h -11.01073 v 33.61425 h 7.95489 v -12.85393 h 3.10435 z m -9.99211,-28.03612 h 2.86182 c 3.92894,0 5.82065,1.40665 5.82065,4.65651 0,3.5409 -1.84321,5.04457 -5.3356,5.04457 h -3.34687 z"
     id="path736"
     style="font-weight:bold;font-size:74.6667px;font-family:'Fira Sans';-inkscape-font-specification:'Fira Sans, Bold';text-align:center;letter-spacing:0px;white-space:pre;fill:#fafafa;stroke-width:0.649626" /><path
     d="m 953.81772,141.61473 c 0,-8.34293 -4.511,-13.19347 -11.88382,-13.19347 -7.80937,0 -12.02934,6.11168 -12.02934,13.82404 0,8.05189 4.36548,13.58151 12.95094,13.58151 4.17147,0 7.46983,-1.55217 10.04062,-3.5894 l -3.15285,-4.26847 c -2.23125,1.55217 -4.07445,2.27975 -6.16019,2.27975 -3.15285,0 -5.33559,-1.26114 -5.82064,-5.86916 h 15.90977 c 0.097,-0.77608 0.14551,-1.94021 0.14551,-2.7648 z m -7.51833,-1.84321 h -8.58546 c 0.38804,-4.65652 1.8432,-6.2572 4.41399,-6.2572 3.05584,0 4.12296,2.42528 4.17147,5.91766 z"
     id="path733"
     style="font-weight:bold;font-size:74.6667px;font-family:'Fira Sans';-inkscape-font-specification:'Fira Sans, Bold';text-align:center;letter-spacing:0px;white-space:pre;fill:#fafafa;stroke-width:0.649626" /><path
     d="m 980.1562,125.07439 c -3.10434,1.8432 -6.40271,3.49238 -12.12635,3.34687 -6.74225,0 -11.30176,3.5894 -11.30176,9.41005 0,3.34687 1.30965,5.62662 4.60802,7.37282 -1.84321,1.16413 -3.05584,3.05584 -3.05584,4.94755 0,2.7648 2.27975,5.09307 7.90638,5.09307 h 3.73491 c 2.57079,0 3.68641,1.01861 3.68641,2.52227 0,1.64919 -1.06711,2.91033 -5.57812,2.91033 -4.65652,0 -5.62662,-0.97011 -5.62662,-3.20136 h -6.88778 c 0,5.09307 2.57079,8.29443 12.32038,8.29443 8.82799,0 13.4845,-3.24986 13.4845,-8.53695 0,-4.31699 -3.83192,-7.46983 -9.84659,-7.46983 h -3.88044 c -2.47377,0 -2.81331,-0.77609 -2.81331,-1.55218 0,-0.58206 0.29103,-1.16413 0.82459,-1.45516 0.9216,0.19402 1.89171,0.29103 2.95883,0.29103 6.69375,0 10.81671,-3.6379 10.81671,-8.63396 0,-3.34687 -1.60068,-5.23858 -4.85054,-6.64524 3.24986,0 5.62662,-0.29103 7.42133,-1.01861 z m -11.93233,8.39143 c 2.57079,0 3.88044,1.30965 3.88044,4.17146 0,2.95883 -1.35815,4.4625 -3.88044,4.4625 -2.32826,0 -3.88043,-1.55218 -3.88043,-4.36548 0,-2.6678 1.50367,-4.26848 3.88043,-4.26848 z"
     id="path730"
     style="font-weight:bold;font-size:74.6667px;font-family:'Fira Sans';-inkscape-font-specification:'Fira Sans, Bold';text-align:center;letter-spacing:0px;white-space:pre;fill:#fafafa;stroke-width:0.649626" /><path
     d="m 1006.5432,129.24585 h -7.66387 v 17.8985 c -1.11562,1.94021 -2.57078,3.00733 -4.17147,3.00733 -1.60067,0 -2.47377,-0.77609 -2.47377,-3.39538 v -17.51045 h -7.66385 v 18.48056 c 0,4.99606 2.37676,8.1004 7.1788,8.1004 3.44388,0 5.96616,-1.35815 7.80937,-4.07445 l 0.33954,3.24986 h 6.64525 z"
     id="path727"
     style="font-weight:bold;font-size:74.6667px;font-family:'Fira Sans';-inkscape-font-specification:'Fira Sans, Bold';text-align:center;letter-spacing:0px;white-space:pre;fill:#fafafa;stroke-width:0.649626" /><path
     d="m 1019.3971,155.82681 c 1.8917,0 3.5409,-0.38804 4.6566,-0.87309 l -1.4552,-5.43261 c -0.3395,0.14552 -0.7761,0.24253 -1.2611,0.24253 -0.9217,0 -1.3582,-0.53357 -1.3582,-1.60068 v -29.97634 l -7.6639,0.82459 v 29.44278 c 0,4.70503 2.6193,7.37282 7.0818,7.37282 z"
     id="path724"
     style="font-weight:bold;font-size:74.6667px;font-family:'Fira Sans';-inkscape-font-specification:'Fira Sans, Bold';text-align:center;letter-spacing:0px;white-space:pre;fill:#fafafa;stroke-width:0.649626" /><path
     d="m 1047.4818,147.53239 v -9.99212 c 0,-5.96616 -3.2013,-9.11901 -10.6712,-9.11901 -2.9103,0 -6.4512,0.67907 -9.7011,1.89171 l 1.7462,5.04456 c 2.5708,-0.8731 5.0931,-1.35815 6.7423,-1.35815 3.1528,0 4.3655,0.9216 4.3655,3.97744 v 1.11562 h -2.6193 c -7.7609,0 -12.0779,3.05585 -12.0779,8.68247 0,4.70503 3.2499,8.0519 8.3915,8.0519 3.0558,0 5.9176,-1.01861 7.7608,-3.83192 1.2127,2.52228 3.2014,3.44388 6.2087,3.68641 l 1.6007,-4.99606 c -1.2126,-0.43655 -1.7462,-1.16413 -1.7462,-3.15285 z m -11.5928,2.81331 c -1.8917,0 -2.9588,-1.21264 -2.9588,-3.24986 0,-2.57079 1.6492,-3.78342 5.1416,-3.78342 h 1.8917 v 4.60801 c -0.9216,1.50367 -2.3283,2.42527 -4.0745,2.42527 z"
     id="path721"
     style="font-weight:bold;font-size:74.6667px;font-family:'Fira Sans';-inkscape-font-specification:'Fira Sans, Bold';text-align:center;letter-spacing:0px;white-space:pre;fill:#fafafa;stroke-width:0.649626" /><path
     d="m 1067.6116,128.51827 c -2.9589,0 -5.4811,2.13424 -6.6453,5.72363 l -0.6791,-4.99605 h -6.6452 v 25.75637 h 7.6639 v -12.95095 c 0.8731,-3.83192 2.1827,-6.11167 5.3356,-6.11167 0.8246,0 1.5036,0.14551 2.3282,0.33954 l 1.2127,-7.42133 c -0.8731,-0.24253 -1.6007,-0.33954 -2.5708,-0.33954 z"
     id="path718"
     style="font-weight:bold;font-size:74.6667px;font-family:'Fira Sans';-inkscape-font-specification:'Fira Sans, Bold';text-align:center;letter-spacing:0px;white-space:pre;fill:#fafafa;stroke-width:0.649626" /><path
     d="m 1105.3972,121.38797 h -20.6148 v 33.61425 h 20.6148 v -5.72364 h -12.6599 v -8.58545 h 10.3317 V 135.115 h -10.3317 v -8.0519 h 11.8353 z"
     id="path715"
     style="font-weight:bold;font-size:74.6667px;font-family:'Fira Sans';-inkscape-font-specification:'Fira Sans, Bold';text-align:center;letter-spacing:0px;white-space:pre;fill:#fafafa;stroke-width:0.649626" /><path
     d="m 1124.1688,141.22668 7.0333,-11.98083 h -8.1489 l -3.4439,8.24592 -3.5894,-8.24592 h -8.5854 l 7.4698,12.22336 -8.2944,13.53301 h 8.3429 l 4.3655,-9.65258 4.4625,9.65258 h 8.6825 z"
     id="path712"
     style="font-weight:bold;font-size:74.6667px;font-family:'Fira Sans';-inkscape-font-specification:'Fira Sans, Bold';text-align:center;letter-spacing:0px;white-space:pre;fill:#fafafa;stroke-width:0.649626" /><path
     d="m 1149.4886,128.42126 c -2.5708,0 -5.2871,1.01861 -7.4213,3.68641 l -0.388,-2.86182 h -6.7423 v 36.52457 l 7.6639,-0.82459 v -11.78681 c 1.6006,1.7947 3.7349,2.66779 6.2572,2.66779 6.3542,0 10.2346,-5.82065 10.2346,-13.77554 0,-8.34292 -2.9588,-13.63001 -9.6041,-13.63001 z m -3.0073,21.77893 c -1.6007,0 -2.8133,-0.72759 -3.8804,-2.27976 v -10.86521 c 1.1156,-1.89171 2.6678,-3.00733 4.414,-3.00733 2.5707,0 4.1229,1.69768 4.1229,8.1004 0,5.77214 -1.7947,8.0519 -4.6565,8.0519 z"
     id="path709"
     style="font-weight:bold;font-size:74.6667px;font-family:'Fira Sans';-inkscape-font-specification:'Fira Sans, Bold';text-align:center;letter-spacing:0px;white-space:pre;fill:#fafafa;stroke-width:0.649626" /><path
     d="m 1177.8643,128.51827 c -2.9588,0 -5.4811,2.13424 -6.6452,5.72363 l -0.6791,-4.99605 h -6.6452 v 25.75637 h 7.6638 v -12.95095 c 0.8731,-3.83192 2.1828,-6.11167 5.3356,-6.11167 0.8246,0 1.5037,0.14551 2.3283,0.33954 l 1.2126,-7.42133 c -0.8731,-0.24253 -1.6007,-0.33954 -2.5708,-0.33954 z"
     id="path706"
     style="font-weight:bold;font-size:74.6667px;font-family:'Fira Sans';-inkscape-font-specification:'Fira Sans, Bold';text-align:center;letter-spacing:0px;white-space:pre;fill:#fafafa;stroke-width:0.649626" /><path
     d="m 1205.3668,141.61473 c 0,-8.34293 -4.511,-13.19347 -11.8838,-13.19347 -7.8094,0 -12.0294,6.11168 -12.0294,13.82404 0,8.05189 4.3655,13.58151 12.951,13.58151 4.1715,0 7.4698,-1.55217 10.0406,-3.5894 l -3.1528,-4.26847 c -2.2313,1.55217 -4.0745,2.27975 -6.1602,2.27975 -3.1529,0 -5.3356,-1.26114 -5.8207,-5.86916 h 15.9098 c 0.097,-0.77608 0.1455,-1.94021 0.1455,-2.7648 z m -7.5183,-1.84321 h -8.5855 c 0.3881,-4.65652 1.8432,-6.2572 4.414,-6.2572 3.0559,0 4.123,2.42528 4.1715,5.91766 z"
     id="path703"
     style="font-weight:bold;font-size:74.6667px;font-family:'Fira Sans';-inkscape-font-specification:'Fira Sans, Bold';text-align:center;letter-spacing:0px;white-space:pre;fill:#fafafa;stroke-width:0.649626" /><path
     d="m 1218.8514,128.42126 c -6.4998,0 -10.5257,3.44388 -10.5257,7.85788 0,3.97743 2.5223,6.59673 7.6153,8.05189 4.6566,1.30965 5.4326,1.8432 5.4326,3.5894 0,1.55217 -1.4066,2.42527 -3.7349,2.42527 -2.5223,0 -4.899,-1.01861 -6.8392,-2.52228 l -3.735,4.17147 c 2.5223,2.27975 6.3057,3.83192 10.7682,3.83192 6.4028,0 11.4473,-3.15285 11.4473,-8.48845 0,-4.60801 -2.8618,-6.74225 -7.9549,-8.19741 -4.608,-1.35815 -5.2871,-1.94022 -5.2871,-3.29837 0,-1.16413 1.0187,-1.94021 3.1044,-1.94021 2.2312,0 4.3655,0.72758 6.3542,1.98872 l 2.8133,-4.31698 c -2.3768,-1.94022 -5.7236,-3.15285 -9.4585,-3.15285 z"
     id="path700"
     style="font-weight:bold;font-size:74.6667px;font-family:'Fira Sans';-inkscape-font-specification:'Fira Sans, Bold';text-align:center;letter-spacing:0px;white-space:pre;fill:#fafafa;stroke-width:0.649626" /><path
     d="m 1242.2795,128.42126 c -6.4997,0 -10.5257,3.44388 -10.5257,7.85788 0,3.97743 2.5223,6.59673 7.6153,8.05189 4.6566,1.30965 5.4327,1.8432 5.4327,3.5894 0,1.55217 -1.4067,2.42527 -3.735,2.42527 -2.5222,0 -4.899,-1.01861 -6.8392,-2.52228 l -3.7349,4.17147 c 2.5222,2.27975 6.3057,3.83192 10.7682,3.83192 6.4027,0 11.4472,-3.15285 11.4472,-8.48845 0,-4.60801 -2.8618,-6.74225 -7.9548,-8.19741 -4.6081,-1.35815 -5.2871,-1.94022 -5.2871,-3.29837 0,-1.16413 1.0186,-1.94021 3.1043,-1.94021 2.2313,0 4.3655,0.72758 6.3542,1.98872 l 2.8133,-4.31698 c -2.3767,-1.94022 -5.7236,-3.15285 -9.4585,-3.15285 z"
     id="path697"
     style="font-weight:bold;font-size:74.6667px;font-family:'Fira Sans';-inkscape-font-specification:'Fira Sans, Bold';text-align:center;letter-spacing:0px;white-space:pre;fill:#fafafa;stroke-width:0.649626" /><path
     d="m 1260.372,115.66434 c -2.6193,0 -4.511,1.89171 -4.511,4.36548 0,2.47378 1.8917,4.36549 4.511,4.36549 2.7163,0 4.5595,-1.89171 4.5595,-4.36549 0,-2.47377 -1.8432,-4.36548 -4.5595,-4.36548 z m 3.8804,13.58151 h -7.6639 v 25.75637 h 7.6639 z"
     id="path694"
     style="font-weight:bold;font-size:74.6667px;font-family:'Fira Sans';-inkscape-font-specification:'Fira Sans, Bold';text-align:center;letter-spacing:0px;white-space:pre;fill:#fafafa;stroke-width:0.649626" /><path
     d="m 1281.4718,128.42126 c -7.8579,0 -12.6114,5.4326 -12.6114,13.67852 0,8.68247 4.802,13.72703 12.6114,13.72703 7.8579,0 12.6114,-5.4326 12.6114,-13.67852 0,-8.68247 -4.7535,-13.72703 -12.6114,-13.72703 z m 0,5.62663 c 3.1043,0 4.6565,2.37676 4.6565,8.1004 0,5.57812 -1.5522,8.0519 -4.6565,8.0519 -3.1044,0 -4.6565,-2.37677 -4.6565,-8.10041 0,-5.57812 1.5521,-8.05189 4.6565,-8.05189 z"
     id="path691"
     style="font-weight:bold;font-size:74.6667px;font-family:'Fira Sans';-inkscape-font-specification:'Fira Sans, Bold';text-align:center;letter-spacing:0px;white-space:pre;fill:#fafafa;stroke-width:0.649626" /><path
     d="m 1313.6794,128.42126 c -3.2499,0 -5.7237,1.35815 -7.8579,3.92893 l -0.5821,-3.10434 h -6.6452 v 25.75637 h 7.6638 v -17.60746 c 1.3097,-2.13424 2.7649,-3.34687 4.4625,-3.34687 1.5037,0 2.4253,0.72758 2.4253,3.44388 v 17.51045 h 7.6639 v -18.8201 c 0,-4.89905 -2.6678,-7.76086 -7.1303,-7.76086 z"
     id="path688"
     style="font-weight:bold;font-size:74.6667px;font-family:'Fira Sans';-inkscape-font-specification:'Fira Sans, Bold';text-align:center;letter-spacing:0px;white-space:pre;fill:#fafafa;stroke-width:0.649626" /><path
     d="m 1335.7008,128.42126 c -6.4997,0 -10.5257,3.44388 -10.5257,7.85788 0,3.97743 2.5223,6.59673 7.6154,8.05189 4.6565,1.30965 5.4326,1.8432 5.4326,3.5894 0,1.55217 -1.4067,2.42527 -3.7349,2.42527 -2.5223,0 -4.8991,-1.01861 -6.8393,-2.52228 l -3.7349,4.17147 c 2.5223,2.27975 6.3057,3.83192 10.7682,3.83192 6.4027,0 11.4473,-3.15285 11.4473,-8.48845 0,-4.60801 -2.8619,-6.74225 -7.9549,-8.19741 -4.608,-1.35815 -5.2871,-1.94022 -5.2871,-3.29837 0,-1.16413 1.0186,-1.94021 3.1043,-1.94021 2.2313,0 4.3655,0.72758 6.3542,1.98872 l 2.8134,-4.31698 c -2.3768,-1.94022 -5.7237,-3.15285 -9.4586,-3.15285 z"
     id="path685"
     style="font-weight:bold;font-size:74.6667px;font-family:'Fira Sans';-inkscape-font-specification:'Fira Sans, Bold';text-align:center;letter-spacing:0px;white-space:pre;fill:#fafafa;stroke-width:0.649626" /></svg>
