<?xml version="1.0" encoding="UTF-8" standalone="no"?>
<svg
   viewBox="0 0 1280 640"
   version="1.1"
   id="svg1"
   sodipodi:docname="pcre2-social.svg"
   inkscape:version="1.2.2 (732a01da63, 2022-12-09)"
   inkscape:export-filename="pcre2-social.png"
   inkscape:export-xdpi="96"
   inkscape:export-ydpi="96"
   width="1280"
   height="640"
   xml:space="preserve"
   xmlns:inkscape="http://www.inkscape.org/namespaces/inkscape"
   xmlns:sodipodi="http://sodipodi.sourceforge.net/DTD/sodipodi-0.dtd"
   xmlns="http://www.w3.org/2000/svg"
   xmlns:svg="http://www.w3.org/2000/svg"><defs
     id="defs1"><rect
       x="-244.36363"
       y="-245.75206"
       width="1017.719"
       height="219.50206"
       id="rect3" /><rect
       x="213.12396"
       y="199.93388"
       width="322.4628"
       height="192.99174"
       id="rect2" /></defs><sodipodi:namedview
     id="namedview1"
     pagecolor="#ffffff"
     bordercolor="#000000"
     borderopacity="0.25"
     inkscape:showpageshadow="2"
     inkscape:pageopacity="0.0"
     inkscape:pagecheckerboard="0"
     inkscape:deskcolor="#d1d1d1"
     inkscape:zoom="0.25464263"
     inkscape:cx="-1093.6896"
     inkscape:cy="1833.9427"
     inkscape:window-width="3818"
     inkscape:window-height="2032"
     inkscape:window-x="0"
     inkscape:window-y="0"
     inkscape:window-maximized="0"
     inkscape:current-layer="svg1"
     showguides="false"
     showgrid="true"><inkscape:grid
       id="grid19"
       units="px"
       originx="0"
       originy="0"
       spacingx="26.25"
       spacingy="26.25"
       empcolor="#0099e5"
       empopacity="0.30196078"
       color="#0099e5"
       opacity="0.14901961"
       empspacing="5"
       enabled="true"
       visible="true" /></sodipodi:namedview><rect
     width="1280"
     height="640"
     fill="#f7df1e"
     id="rect1"
     style="fill:#0085cc;fill-opacity:1;stroke-width:1.43666"
     x="0"
     y="0" /><path
     id="text55"
     style="font-weight:800;font-size:135.694px;font-family:'Fira Sans';-inkscape-font-specification:'Fira Sans, Ultra-Bold';letter-spacing:12.5371px;fill:#006094;fill-opacity:1;stroke-width:2.50741"
     d="M 313.46971,143.94336 288.68651,238.25 h 22.56836 l 24.67968,-94.30664 z" /><path
     d="M 399.90362,143.94267 H 367.60845 V 238.25 h 25.10339 v -30.39546 h 9.63428 c 22.11812,0 37.58723,-10.71982 37.58723,-32.70225 0,-20.89688 -15.19772,-31.20962 -40.02973,-31.20962 z m 0.1357,46.00027 h -7.32748 v -28.36005 h 6.7847 c 10.04136,0 14.79065,4.74929 14.79065,13.70509 0,10.44844 -5.15637,14.65496 -14.24787,14.65496 z"
     id="path682"
     style="font-weight:800;font-size:135.694px;font-family:'Fira Sans';-inkscape-font-specification:'Fira Sans, Ultra-Bold';letter-spacing:12.5371px;fill:#fafafa;stroke-width:2.50741" /><path
     d="m 502.40583,141.50018 c -25.51047,0 -43.82916,17.91161 -43.82916,49.39261 0,32.43087 17.50453,49.7997 44.23625,49.7997 13.02662,0 23.61075,-5.97053 30.25976,-12.61954 l -11.12691,-14.11218 c -5.69915,4.47791 -10.99121,7.73456 -18.0473,7.73456 -11.80538,0 -19.26855,-9.49858 -19.26855,-30.80254 0,-21.57534 7.59886,-31.07392 18.99716,-31.07392 6.37762,0 11.3983,2.44249 16.55467,6.37762 L 531.98713,152.22 c -8.00595,-6.7847 -17.23314,-10.71982 -29.5813,-10.71982 z"
     id="path679"
     style="font-weight:800;font-size:135.694px;font-family:'Fira Sans';-inkscape-font-specification:'Fira Sans, Ultra-Bold';letter-spacing:12.5371px;fill:#fafafa;stroke-width:2.50741" /><path
     d="m 603.82261,238.25 h 27.95297 l -23.47507,-39.35126 c 11.80538,-6.24192 17.36884,-13.43371 17.36884,-25.64617 0,-20.08271 -13.29802,-29.3099 -39.62265,-29.3099 H 553.34444 V 238.25 h 25.10339 v -34.73766 h 6.9204 z m -25.37478,-76.8028 h 7.05609 c 9.49858,0 14.38357,3.66373 14.38357,11.80537 0,9.0915 -4.47791,13.16232 -13.02663,13.16232 h -8.41303 z"
     id="path676"
     style="font-weight:800;font-size:135.694px;font-family:'Fira Sans';-inkscape-font-specification:'Fira Sans, Ultra-Bold';letter-spacing:12.5371px;fill:#fafafa;stroke-width:2.50741" /><path
     d="M 709.85298,143.94267 H 650.01192 V 238.25 h 59.43398 v -17.77591 h -34.33059 v -21.43966 h 28.08866 V 181.8013 h -28.08866 v -20.08272 h 32.15948 z"
     id="path673"
     style="font-weight:800;font-size:135.694px;font-family:'Fira Sans';-inkscape-font-specification:'Fira Sans, Ultra-Bold';letter-spacing:12.5371px;fill:#fafafa;stroke-width:2.50741" /><path
     d="m 758.89189,144.21406 c -14.38356,0 -25.23908,6.649 -32.56656,16.41897 l 13.97648,11.2626 c 5.02068,-6.37761 9.63428,-9.36288 16.01189,-9.36288 6.64901,0 10.71983,4.07082 10.71983,10.85552 0,10.31274 -6.92039,18.59008 -37.31585,48.03567 V 238.25 h 61.46938 l 2.57819,-18.31869 h -36.63738 c 28.90282,-25.51047 34.60197,-35.68752 34.60197,-49.12123 0,-14.24787 -11.2626,-26.59602 -32.83795,-26.59602 z"
     id="path670"
     style="font-weight:800;font-size:135.694px;font-family:'Fira Sans';-inkscape-font-specification:'Fira Sans, Ultra-Bold';letter-spacing:30px;fill:#fafafa;stroke-width:2.50741" /><path
     d="m 843.44087,214.50355 c -7.32747,0 -13.16232,5.97054 -13.16232,13.16232 0,7.19178 5.83485,13.02662 13.16232,13.02662 7.32748,0 13.16232,-5.83484 13.16232,-13.02662 0,-7.19178 -5.83484,-13.16232 -13.16232,-13.16232 z"
     id="path667"
     style="font-weight:800;font-size:135.694px;font-family:'Fira Sans';-inkscape-font-specification:'Fira Sans, Ultra-Bold';letter-spacing:12.5371px;fill:#006094;stroke-width:2.50741" /><path
     d="m 926.2676,166.60357 -6.24193,-18.99716 -16.82605,8.9558 3.12096,-19.13285 h -20.3541 l 3.12096,18.99716 -16.82606,-8.68442 -6.24192,18.99716 18.72577,2.71388 -13.4337,13.29801 16.55466,12.07677 8.27734,-17.09744 8.54872,16.96175 16.55467,-12.07677 -13.7051,-13.16232 z"
     id="path664"
     style="font-weight:800;font-size:135.694px;font-family:'Fira Sans';-inkscape-font-specification:'Fira Sans, Ultra-Bold';letter-spacing:12.5371px;fill:#006094;stroke-width:2.50741" /><path
     id="text47"
     style="font-weight:800;font-size:135.694px;font-family:'Fira Sans';-inkscape-font-specification:'Fira Sans, Ultra-Bold';letter-spacing:12.5371px;fill:#006094;fill-opacity:1;stroke-width:2.50741"
     d="M 968.84859,143.94336 944.06539,238.25 h 22.5703 l 24.6778,-94.30664 z" /><path
     d="m 380.4585,337.09667 h -16.72534 v 51.74403 h 12.24534 v -17.24801 h 5.6 c 11.94667,0 20.45868,-5.6 20.45868,-17.62134 0,-11.34934 -8.21334,-16.87468 -21.57868,-16.87468 z m 0.0747,25.68535 h -4.55467 v -16.94934 h 4.33067 c 6.048,0 9.10933,2.61333 9.10933,8.13867 0,6.496 -3.36,8.81067 -8.88533,8.81067 z"
     id="path781"
     style="font-weight:bold;font-size:74.6667px;font-family:'Fira Sans';-inkscape-font-specification:'Fira Sans, Bold';text-align:center;letter-spacing:0px;white-space:pre;fill:#fafafa" /><path
     d="m 441.38651,368.23269 c 0,-12.84267 -6.944,-20.30934 -18.29334,-20.30934 -12.02134,0 -18.51734,9.408 -18.51734,21.28001 0,12.39467 6.72,20.90667 19.93601,20.90667 6.42133,0 11.49867,-2.38933 15.456,-5.52533 l -4.85333,-6.57067 c -3.43467,2.38933 -6.272,3.50933 -9.48267,3.50933 -4.85334,0 -8.21334,-1.94133 -8.96001,-9.03467 h 24.49068 c 0.14933,-1.19467 0.224,-2.98667 0.224,-4.256 z m -11.57334,-2.83734 h -13.216 c 0.59733,-7.168 2.83733,-9.632 6.79467,-9.632 4.704,0 6.34667,3.73333 6.42133,9.10934 z"
     id="path778"
     style="font-weight:bold;font-size:74.6667px;font-family:'Fira Sans';-inkscape-font-specification:'Fira Sans, Bold';text-align:center;letter-spacing:0px;white-space:pre;fill:#fafafa" /><path
     d="m 469.61059,348.07268 c -4.55467,0 -8.43734,3.28533 -10.22934,8.81067 l -1.04533,-7.69067 h -10.22934 v 39.64802 h 11.79734 v -19.93601 c 1.344,-5.89867 3.36,-9.40801 8.21334,-9.40801 1.26933,0 2.31466,0.224 3.584,0.52267 l 1.86666,-11.424 c -1.344,-0.37334 -2.464,-0.52267 -3.95733,-0.52267 z"
     id="path775"
     style="font-weight:bold;font-size:74.6667px;font-family:'Fira Sans';-inkscape-font-specification:'Fira Sans, Bold';text-align:center;letter-spacing:0px;white-space:pre;fill:#fafafa" /><path
     d="m 488.42654,390.11003 c 2.912,0 5.45066,-0.59733 7.168,-1.344 l -2.24,-8.36267 c -0.52267,0.224 -1.19467,0.37333 -1.94134,0.37333 -1.41866,0 -2.09066,-0.82133 -2.09066,-2.464 v -46.14402 l -11.79734,1.26934 v 45.32268 c 0,7.24267 4.032,11.34934 10.90134,11.34934 z"
     id="path772"
     style="font-weight:bold;font-size:74.6667px;font-family:'Fira Sans';-inkscape-font-specification:'Fira Sans, Bold';text-align:center;letter-spacing:0px;white-space:pre;fill:#fafafa" /><path
     d="m 498.95462,370.02469 h 23.81867 v -9.10934 h -23.81867 z"
     id="path769"
     style="font-weight:bold;font-size:74.6667px;font-family:'Fira Sans';-inkscape-font-specification:'Fira Sans, Bold';text-align:center;letter-spacing:0px;white-space:pre;fill:#fafafa" /><path
     d="m 552.04261,335.82734 c -13.44001,0 -23.52002,9.70667 -23.52002,27.02935 0,17.696 9.48268,27.25334 23.66935,27.25334 7.168,0 12.76801,-3.21067 16.20267,-6.64533 l -5.45067,-7.01867 c -3.06133,2.31466 -6.048,4.18133 -10.15467,4.18133 -6.86933,0 -11.424,-5.30133 -11.424,-17.77067 0,-12.69334 4.62933,-17.99468 11.27467,-17.99468 3.50933,0 6.42134,1.344 9.33334,3.584 l 5.824,-6.944 c -4.33067,-3.65867 -9.03467,-5.67467 -15.75467,-5.67467 z"
     id="path766"
     style="font-weight:bold;font-size:74.6667px;font-family:'Fira Sans';-inkscape-font-specification:'Fira Sans, Bold';text-align:center;letter-spacing:0px;white-space:pre;fill:#fafafa" /><path
     d="m 590.04798,347.92335 c -12.09601,0 -19.41335,8.36267 -19.41335,21.05601 0,13.36534 7.39201,21.13067 19.41335,21.13067 12.096,0 19.41334,-8.36267 19.41334,-21.05601 0,-13.36534 -7.31734,-21.13067 -19.41334,-21.13067 z m 0,8.66133 c 4.77867,0 7.168,3.65867 7.168,12.46934 0,8.58667 -2.38933,12.39467 -7.168,12.39467 -4.77867,0 -7.16801,-3.65866 -7.16801,-12.46933 0,-8.58668 2.38934,-12.39468 7.16801,-12.39468 z"
     id="path763"
     style="font-weight:bold;font-size:74.6667px;font-family:'Fira Sans';-inkscape-font-specification:'Fira Sans, Bold';text-align:center;letter-spacing:0px;white-space:pre;fill:#fafafa" /><path
     d="m 660.23467,347.92335 c -5.07734,0 -8.736,2.09066 -11.87201,6.272 -1.568,-4.032 -4.928,-6.272 -9.33333,-6.272 -4.85334,0 -8.51201,2.016 -11.49868,5.97333 l -0.896,-4.704 h -10.22933 v 39.64802 h 11.79733 v -27.10401 c 1.71734,-3.28534 3.58401,-5.15201 6.04801,-5.15201 1.792,0 3.36,1.12 3.36,5.30134 V 388.8407 H 649.408 v -27.10401 c 1.71733,-3.28534 3.50933,-5.15201 6.048,-5.15201 1.792,0 3.28534,1.12 3.28534,5.30134 v 26.95468 h 11.79733 v -28.97068 c 0,-7.54134 -4.18133,-11.94667 -10.304,-11.94667 z"
     id="path760"
     style="font-weight:bold;font-size:74.6667px;font-family:'Fira Sans';-inkscape-font-specification:'Fira Sans, Bold';text-align:center;letter-spacing:0px;white-space:pre;fill:#fafafa" /><path
     d="m 701.89865,347.92335 c -3.95734,0 -8.13867,1.568 -11.42401,5.67466 l -0.59733,-4.40533 h -10.37867 v 56.22403 l 11.79734,-1.26934 v -18.14401 c 2.464,2.76267 5.74933,4.10667 9.632,4.10667 9.78134,0 15.75468,-8.96 15.75468,-21.20534 0,-12.84267 -4.55467,-20.98134 -14.78401,-20.98134 z m -4.62934,33.52534 c -2.464,0 -4.33067,-1.12 -5.97333,-3.50933 v -16.72534 c 1.71733,-2.912 4.10667,-4.62934 6.79467,-4.62934 3.95733,0 6.34667,2.61334 6.34667,12.46934 0,8.88534 -2.76267,12.39467 -7.16801,12.39467 z"
     id="path757"
     style="font-weight:bold;font-size:74.6667px;font-family:'Fira Sans';-inkscape-font-specification:'Fira Sans, Bold';text-align:center;letter-spacing:0px;white-space:pre;fill:#fafafa" /><path
     d="m 755.50937,377.34203 v -15.38134 c 0,-9.18401 -4.928,-14.03734 -16.42667,-14.03734 -4.48001,0 -9.93068,1.04533 -14.93334,2.912 l 2.688,7.76533 c 3.95733,-1.344 7.84,-2.09066 10.37867,-2.09066 4.85333,0 6.72,1.41866 6.72,6.12267 v 1.71733 h -4.032 c -11.94667,0 -18.59201,4.704 -18.59201,13.36534 0,7.24267 5.00267,12.39467 12.91734,12.39467 4.704,0 9.10934,-1.568 11.94667,-5.89867 1.86667,3.88267 4.928,5.30134 9.55734,5.67467 l 2.464,-7.69067 c -1.86667,-0.672 -2.688,-1.792 -2.688,-4.85333 z m -17.84534,4.33066 c -2.912,0 -4.55467,-1.86666 -4.55467,-5.00266 0,-3.95734 2.53867,-5.82401 7.91467,-5.82401 h 2.912 v 7.09334 c -1.41867,2.31467 -3.584,3.73333 -6.272,3.73333 z"
     id="path754"
     style="font-weight:bold;font-size:74.6667px;font-family:'Fira Sans';-inkscape-font-specification:'Fira Sans, Bold';text-align:center;letter-spacing:0px;white-space:pre;fill:#fafafa" /><path
     d="m 785.97339,379.50736 c -1.568,0.896 -2.912,1.26933 -4.256,1.26933 -2.464,0 -3.73334,-1.344 -3.73334,-5.152 v -18.21867 h 7.84001 l 1.26933,-8.21334 h -9.10934 v -9.93067 l -11.79734,1.344 v 8.58667 h -5.6 v 8.21334 h 5.6 v 18.36801 c 0,9.33333 4.25601,14.26134 12.99201,14.336 3.584,0 7.76534,-1.04533 10.75201,-3.136 z"
     id="path751"
     style="font-weight:bold;font-size:74.6667px;font-family:'Fira Sans';-inkscape-font-specification:'Fira Sans, Bold';text-align:center;letter-spacing:0px;white-space:pre;fill:#fafafa" /><path
     d="m 799.6374,328.286 c -4.032,0 -6.944,2.912 -6.944,6.72001 0,3.808 2.912,6.72 6.944,6.72 4.18133,0 7.01867,-2.912 7.01867,-6.72 0,-3.80801 -2.83734,-6.72001 -7.01867,-6.72001 z m 5.97334,20.90668 H 793.8134 v 39.64802 h 11.79734 z"
     id="path748"
     style="font-weight:bold;font-size:74.6667px;font-family:'Fira Sans';-inkscape-font-specification:'Fira Sans, Bold';text-align:center;letter-spacing:0px;white-space:pre;fill:#fafafa" /><path
     d="m 837.34404,347.92335 c -4.40533,0 -8.288,2.016 -10.67733,5.30133 v -21.05601 l -11.79734,1.26934 v 55.40269 h 10.45333 l 0.59734,-3.808 c 2.38933,3.136 5.97333,5.07733 10.37867,5.07733 9.856,0 15.75467,-8.81067 15.75467,-21.05601 0,-13.29067 -5.22667,-21.13067 -14.70934,-21.13067 z m -4.48,33.60001 c -2.53867,0 -4.704,-1.41867 -6.19733,-3.808 v -16.50134 c 1.71733,-2.912 4.032,-4.62934 6.72,-4.62934 3.73333,0 6.42133,2.38934 6.42133,12.46934 0,9.25867 -2.83733,12.46934 -6.944,12.46934 z"
     id="path745"
     style="font-weight:bold;font-size:74.6667px;font-family:'Fira Sans';-inkscape-font-specification:'Fira Sans, Bold';text-align:center;letter-spacing:0px;white-space:pre;fill:#fafafa" /><path
     d="m 869.82403,390.11003 c 2.912,0 5.45067,-0.59733 7.168,-1.344 l -2.24,-8.36267 c -0.52267,0.224 -1.19467,0.37333 -1.94134,0.37333 -1.41866,0 -2.09066,-0.82133 -2.09066,-2.464 v -46.14402 l -11.79734,1.26934 v 45.32268 c 0,7.24267 4.032,11.34934 10.90134,11.34934 z"
     id="path742"
     style="font-weight:bold;font-size:74.6667px;font-family:'Fira Sans';-inkscape-font-specification:'Fira Sans, Bold';text-align:center;letter-spacing:0px;white-space:pre;fill:#fafafa" /><path
     d="m 915.52009,368.23269 c 0,-12.84267 -6.94401,-20.30934 -18.29335,-20.30934 -12.02133,0 -18.51734,9.408 -18.51734,21.28001 0,12.39467 6.72001,20.90667 19.93601,20.90667 6.42134,0 11.49867,-2.38933 15.45601,-5.52533 l -4.85334,-6.57067 c -3.43466,2.38933 -6.272,3.50933 -9.48267,3.50933 -4.85333,0 -8.21333,-1.94133 -8.96,-9.03467 h 24.49068 c 0.14933,-1.19467 0.224,-2.98667 0.224,-4.256 z m -11.57334,-2.83734 h -13.21601 c 0.59734,-7.168 2.83734,-9.632 6.79467,-9.632 4.704,0 6.34667,3.73333 6.42134,9.10934 z"
     id="path739"
     style="font-weight:bold;font-size:74.6667px;font-family:'Fira Sans';-inkscape-font-specification:'Fira Sans, Bold';text-align:center;letter-spacing:0px;white-space:pre;fill:#fafafa" /><path
     d="m 325.83985,482.17407 h 13.81334 L 326.51185,460.1474 c 6.72,-3.06134 9.93067,-7.16801 9.93067,-13.96268 0,-10.752 -7.24267,-15.75467 -21.28001,-15.75467 h -16.94934 v 51.74402 h 12.24534 V 462.3874 h 4.77867 z m -15.38134,-43.15735 h 4.40533 c 6.04801,0 8.96001,2.16533 8.96001,7.168 0,5.45067 -2.83734,7.76534 -8.21334,7.76534 h -5.152 z"
     id="path736"
     style="font-weight:bold;font-size:74.6667px;font-family:'Fira Sans';-inkscape-font-specification:'Fira Sans, Bold';text-align:center;letter-spacing:0px;white-space:pre;fill:#fafafa" /><path
     d="m 377.88254,461.56606 c 0,-12.84267 -6.944,-20.30934 -18.29334,-20.30934 -12.02134,0 -18.51734,9.408 -18.51734,21.28001 0,12.39467 6.72,20.90668 19.93601,20.90668 6.42134,0 11.49867,-2.38934 15.45601,-5.52534 l -4.85334,-6.57067 c -3.43467,2.38933 -6.272,3.50934 -9.48267,3.50934 -4.85334,0 -8.21334,-1.94134 -8.96,-9.03468 h 24.49067 c 0.14934,-1.19466 0.224,-2.98666 0.224,-4.256 z m -11.57333,-2.83733 H 353.0932 c 0.59733,-7.16801 2.83733,-9.63201 6.79467,-9.63201 4.704,0 6.34667,3.73334 6.42134,9.10934 z"
     id="path733"
     style="font-weight:bold;font-size:74.6667px;font-family:'Fira Sans';-inkscape-font-specification:'Fira Sans, Bold';text-align:center;letter-spacing:0px;white-space:pre;fill:#fafafa" /><path
     d="m 418.42663,436.10472 c -4.77867,2.83733 -9.85601,5.376 -18.66668,5.152 -10.37867,0 -17.39734,5.52534 -17.39734,14.48534 0,5.152 2.016,8.66134 7.09334,11.34934 -2.83734,1.792 -4.704,4.704 -4.704,7.616 0,4.256 3.50933,7.84001 12.17067,7.84001 h 5.74933 c 3.95734,0 5.67467,1.568 5.67467,3.88266 0,2.53867 -1.64266,4.48001 -8.58667,4.48001 -7.168,0 -8.66133,-1.49334 -8.66133,-4.92801 h -10.60268 c 0,7.84001 3.95734,12.76801 18.96535,12.76801 13.58934,0 20.75734,-5.00267 20.75734,-13.14134 0,-6.64534 -5.89867,-11.49867 -15.15734,-11.49867 h -5.97334 c -3.808,0 -4.33067,-1.19467 -4.33067,-2.38934 0,-0.896 0.448,-1.792 1.26934,-2.24 1.41866,0.29867 2.912,0.448 4.55467,0.448 10.304,0 16.65067,-5.6 16.65067,-13.29067 0,-5.152 -2.464,-8.064 -7.46667,-10.22934 5.00267,0 8.66134,-0.448 11.42401,-1.568 z m -18.36801,12.91734 c 3.95733,0 5.97334,2.016 5.97334,6.42133 0,4.55467 -2.09067,6.86934 -5.97334,6.86934 -3.584,0 -5.97334,-2.38934 -5.97334,-6.72 0,-4.10667 2.31467,-6.57067 5.97334,-6.57067 z"
     id="path730"
     style="font-weight:bold;font-size:74.6667px;font-family:'Fira Sans';-inkscape-font-specification:'Fira Sans, Bold';text-align:center;letter-spacing:0px;white-space:pre;fill:#fafafa" /><path
     d="m 459.04538,442.52605 h -11.79734 v 27.55202 c -1.71733,2.98666 -3.95733,4.62933 -6.42134,4.62933 -2.464,0 -3.808,-1.19467 -3.808,-5.22667 v -26.95468 h -11.79734 v 28.44802 c 0,7.69067 3.65867,12.46934 11.05068,12.46934 5.30133,0 9.184,-2.09067 12.02133,-6.27201 l 0.52267,5.00267 h 10.22934 z"
     id="path727"
     style="font-weight:bold;font-size:74.6667px;font-family:'Fira Sans';-inkscape-font-specification:'Fira Sans, Bold';text-align:center;letter-spacing:0px;white-space:pre;fill:#fafafa" /><path
     d="m 478.83208,483.44341 c 2.912,0 5.45067,-0.59734 7.16801,-1.344 l -2.24,-8.36268 c -0.52267,0.22401 -1.19467,0.37334 -1.94134,0.37334 -1.41867,0 -2.09067,-0.82134 -2.09067,-2.464 v -46.14402 l -11.79734,1.26933 v 45.32269 c 0,7.24267 4.03201,11.34934 10.90134,11.34934 z"
     id="path724"
     style="font-weight:bold;font-size:74.6667px;font-family:'Fira Sans';-inkscape-font-specification:'Fira Sans, Bold';text-align:center;letter-spacing:0px;white-space:pre;fill:#fafafa" /><path
     d="m 522.06418,470.6754 v -15.38134 c 0,-9.184 -4.928,-14.03734 -16.42667,-14.03734 -4.48001,0 -9.93068,1.04533 -14.93335,2.912 l 2.68801,7.76534 c 3.95733,-1.344 7.84,-2.09067 10.37867,-2.09067 4.85333,0 6.72,1.41867 6.72,6.12267 v 1.71733 h -4.032 c -11.94667,0 -18.59201,4.70401 -18.59201,13.36534 0,7.24267 5.00267,12.39468 12.91734,12.39468 4.704,0 9.10934,-1.568 11.94667,-5.89867 1.86667,3.88267 4.928,5.30133 9.55734,5.67467 l 2.464,-7.69067 c -1.86667,-0.672 -2.688,-1.79201 -2.688,-4.85334 z m -17.84534,4.33067 c -2.912,0 -4.55467,-1.86667 -4.55467,-5.00267 0,-3.95734 2.53867,-5.824 7.91467,-5.824 h 2.912 v 7.09333 c -1.41867,2.31467 -3.584,3.73334 -6.272,3.73334 z"
     id="path721"
     style="font-weight:bold;font-size:74.6667px;font-family:'Fira Sans';-inkscape-font-specification:'Fira Sans, Bold';text-align:center;letter-spacing:0px;white-space:pre;fill:#fafafa" /><path
     d="m 553.05087,441.40605 c -4.55467,0 -8.43734,3.28534 -10.22934,8.81067 l -1.04534,-7.69067 h -10.22933 v 39.64802 h 11.79734 v -19.93601 c 1.344,-5.89867 3.36,-9.408 8.21333,-9.408 1.26934,0 2.31467,0.224 3.584,0.52267 l 1.86667,-11.42401 c -1.344,-0.37333 -2.464,-0.52267 -3.95733,-0.52267 z"
     id="path718"
     style="font-weight:bold;font-size:74.6667px;font-family:'Fira Sans';-inkscape-font-specification:'Fira Sans, Bold';text-align:center;letter-spacing:0px;white-space:pre;fill:#fafafa" /><path
     d="m 611.21614,430.43005 h -31.73335 v 51.74402 h 31.73335 v -8.81067 h -19.48801 v -13.216 h 15.90401 v -8.58668 h -15.90401 v -12.39467 h 18.21868 z"
     id="path715"
     style="font-weight:bold;font-size:74.6667px;font-family:'Fira Sans';-inkscape-font-specification:'Fira Sans, Bold';text-align:center;letter-spacing:0px;white-space:pre;fill:#fafafa" /><path
     d="m 640.11219,460.96873 10.82667,-18.44268 h -12.54401 l -5.30133,12.69334 -5.52534,-12.69334 h -13.216 l 11.49867,18.81601 -12.76801,20.83201 h 12.84267 l 6.72001,-14.85867 6.86933,14.85867 h 13.36534 z"
     id="path712"
     style="font-weight:bold;font-size:74.6667px;font-family:'Fira Sans';-inkscape-font-specification:'Fira Sans, Bold';text-align:center;letter-spacing:0px;white-space:pre;fill:#fafafa" /><path
     d="m 679.08816,441.25672 c -3.95733,0 -8.13867,1.568 -11.424,5.67467 l -0.59734,-4.40534 h -10.37867 v 56.22403 l 11.79734,-1.26933 v -18.14401 c 2.464,2.76267 5.74934,4.10667 9.63201,4.10667 9.78133,0 15.75467,-8.96001 15.75467,-21.20535 0,-12.84267 -4.55467,-20.98134 -14.78401,-20.98134 z m -4.62933,33.52535 c -2.464,0 -4.33067,-1.12 -5.97334,-3.50934 v -16.72534 c 1.71734,-2.912 4.10667,-4.62933 6.79467,-4.62933 3.95734,0 6.34667,2.61333 6.34667,12.46934 0,8.88533 -2.76267,12.39467 -7.168,12.39467 z"
     id="path709"
     style="font-weight:bold;font-size:74.6667px;font-family:'Fira Sans';-inkscape-font-specification:'Fira Sans, Bold';text-align:center;letter-spacing:0px;white-space:pre;fill:#fafafa" /><path
     d="m 722.76821,441.40605 c -4.55467,0 -8.43733,3.28534 -10.22934,8.81067 l -1.04533,-7.69067 H 701.2642 v 39.64802 h 11.79734 v -19.93601 c 1.344,-5.89867 3.36,-9.408 8.21334,-9.408 1.26933,0 2.31467,0.224 3.584,0.52267 l 1.86667,-11.42401 c -1.344,-0.37333 -2.464,-0.52267 -3.95734,-0.52267 z"
     id="path706"
     style="font-weight:bold;font-size:74.6667px;font-family:'Fira Sans';-inkscape-font-specification:'Fira Sans, Bold';text-align:center;letter-spacing:0px;white-space:pre;fill:#fafafa" /><path
     d="m 765.10413,461.56606 c 0,-12.84267 -6.944,-20.30934 -18.29334,-20.30934 -12.02134,0 -18.51734,9.408 -18.51734,21.28001 0,12.39467 6.72,20.90668 19.93601,20.90668 6.42133,0 11.49867,-2.38934 15.45601,-5.52534 l -4.85334,-6.57067 c -3.43467,2.38933 -6.272,3.50934 -9.48267,3.50934 -4.85334,0 -8.21334,-1.94134 -8.96001,-9.03468 h 24.49068 c 0.14934,-1.19466 0.224,-2.98666 0.224,-4.256 z m -11.57334,-2.83733 h -13.216 c 0.59733,-7.16801 2.83733,-9.63201 6.79467,-9.63201 4.704,0 6.34667,3.73334 6.42133,9.10934 z"
     id="path703"
     style="font-weight:bold;font-size:74.6667px;font-family:'Fira Sans';-inkscape-font-specification:'Fira Sans, Bold';text-align:center;letter-spacing:0px;white-space:pre;fill:#fafafa" /><path
     d="m 785.86154,441.25672 c -10.00534,0 -16.20267,5.30134 -16.20267,12.09601 0,6.12266 3.88266,10.15467 11.72267,12.39467 7.168,2.016 8.36267,2.83733 8.36267,5.52533 0,2.38934 -2.16534,3.73334 -5.74934,3.73334 -3.88267,0 -7.54133,-1.568 -10.528,-3.88267 l -5.74934,6.42134 c 3.88267,3.50933 9.70667,5.89867 16.57601,5.89867 9.856,0 17.62134,-4.85334 17.62134,-13.06668 0,-7.09333 -4.40533,-10.37867 -12.24534,-12.61867 -7.09333,-2.09067 -8.13867,-2.98667 -8.13867,-5.07734 0,-1.792 1.568,-2.98666 4.77867,-2.98666 3.43467,0 6.72,1.12 9.78134,3.06133 l 4.33067,-6.64533 c -3.65867,-2.98667 -8.81067,-4.85334 -14.56001,-4.85334 z"
     id="path700"
     style="font-weight:bold;font-size:74.6667px;font-family:'Fira Sans';-inkscape-font-specification:'Fira Sans, Bold';text-align:center;letter-spacing:0px;white-space:pre;fill:#fafafa" /><path
     d="m 821.92557,441.25672 c -10.00534,0 -16.20268,5.30134 -16.20268,12.09601 0,6.12266 3.88267,10.15467 11.72267,12.39467 7.16801,2.016 8.36267,2.83733 8.36267,5.52533 0,2.38934 -2.16533,3.73334 -5.74933,3.73334 -3.88267,0 -7.54134,-1.568 -10.52801,-3.88267 l -5.74933,6.42134 c 3.88267,3.50933 9.70667,5.89867 16.57601,5.89867 9.856,0 17.62134,-4.85334 17.62134,-13.06668 0,-7.09333 -4.40534,-10.37867 -12.24534,-12.61867 -7.09334,-2.09067 -8.13867,-2.98667 -8.13867,-5.07734 0,-1.792 1.568,-2.98666 4.77867,-2.98666 3.43466,0 6.72,1.12 9.78133,3.06133 l 4.33067,-6.64533 c -3.65867,-2.98667 -8.81067,-4.85334 -14.56,-4.85334 z"
     id="path697"
     style="font-weight:bold;font-size:74.6667px;font-family:'Fira Sans';-inkscape-font-specification:'Fira Sans, Bold';text-align:center;letter-spacing:0px;white-space:pre;fill:#fafafa" /><path
     d="m 849.77619,421.61938 c -4.032,0 -6.944,2.912 -6.944,6.72 0,3.808 2.912,6.72 6.944,6.72 4.18134,0 7.01867,-2.912 7.01867,-6.72 0,-3.808 -2.83733,-6.72 -7.01867,-6.72 z m 5.97334,20.90667 h -11.79734 v 39.64802 h 11.79734 z"
     id="path694"
     style="font-weight:bold;font-size:74.6667px;font-family:'Fira Sans';-inkscape-font-specification:'Fira Sans, Bold';text-align:center;letter-spacing:0px;white-space:pre;fill:#fafafa" /><path
     d="m 882.25617,441.25672 c -12.09601,0 -19.41334,8.36267 -19.41334,21.05601 0,13.36534 7.392,21.13068 19.41334,21.13068 12.096,0 19.41334,-8.36267 19.41334,-21.05601 0,-13.36534 -7.31734,-21.13068 -19.41334,-21.13068 z m 0,8.66134 c 4.77867,0 7.168,3.65867 7.168,12.46934 0,8.58667 -2.38933,12.39467 -7.168,12.39467 -4.77867,0 -7.16801,-3.65867 -7.16801,-12.46934 0,-8.58667 2.38934,-12.39467 7.16801,-12.39467 z"
     id="path691"
     style="font-weight:bold;font-size:74.6667px;font-family:'Fira Sans';-inkscape-font-specification:'Fira Sans, Bold';text-align:center;letter-spacing:0px;white-space:pre;fill:#fafafa" /><path
     d="m 931.83485,441.25672 c -5.00267,0 -8.81067,2.09067 -12.096,6.048 l -0.89601,-4.77867 h -10.22933 v 39.64802 h 11.79734 v -27.10401 c 2.016,-3.28534 4.256,-5.152 6.86933,-5.152 2.31467,0 3.73334,1.12 3.73334,5.30133 v 26.95468 h 11.79734 v -28.97068 c 0,-7.54134 -4.10667,-11.94667 -10.97601,-11.94667 z"
     id="path688"
     style="font-weight:bold;font-size:74.6667px;font-family:'Fira Sans';-inkscape-font-specification:'Fira Sans, Bold';text-align:center;letter-spacing:0px;white-space:pre;fill:#fafafa" /><path
     d="m 965.73349,441.25672 c -10.00534,0 -16.20268,5.30134 -16.20268,12.09601 0,6.12266 3.88267,10.15467 11.72268,12.39467 7.168,2.016 8.36267,2.83733 8.36267,5.52533 0,2.38934 -2.16534,3.73334 -5.74934,3.73334 -3.88267,0 -7.54134,-1.568 -10.528,-3.88267 l -5.74934,6.42134 c 3.88267,3.50933 9.70667,5.89867 16.57601,5.89867 9.856,0 17.62134,-4.85334 17.62134,-13.06668 0,-7.09333 -4.40534,-10.37867 -12.24534,-12.61867 -7.09334,-2.09067 -8.13867,-2.98667 -8.13867,-5.07734 0,-1.792 1.568,-2.98666 4.77867,-2.98666 3.43467,0 6.72,1.12 9.78134,3.06133 l 4.33067,-6.64533 c -3.65867,-2.98667 -8.81068,-4.85334 -14.56001,-4.85334 z"
     id="path685"
     style="font-weight:bold;font-size:74.6667px;font-family:'Fira Sans';-inkscape-font-specification:'Fira Sans, Bold';text-align:center;letter-spacing:0px;white-space:pre;fill:#fafafa" /></svg>
