<?xml version="1.0" encoding="UTF-8" standalone="no"?>
<svg
   viewBox="0 0 630 630"
   version="1.1"
   id="svg1"
   sodipodi:docname="pcre2-icon.svg"
   inkscape:version="1.2.2 (732a01da63, 2022-12-09)"
   inkscape:export-filename="pcre2-logo.png"
   inkscape:export-xdpi="76.190475"
   inkscape:export-ydpi="76.190475"
   xmlns:inkscape="http://www.inkscape.org/namespaces/inkscape"
   xmlns:sodipodi="http://sodipodi.sourceforge.net/DTD/sodipodi-0.dtd"
   xmlns="http://www.w3.org/2000/svg"
   xmlns:svg="http://www.w3.org/2000/svg">
  <defs
     id="defs1">
    <rect
       x="213.12397"
       y="199.93388"
       width="322.46281"
       height="192.99174"
       id="rect2" />
  </defs>
  <sodipodi:namedview
     id="namedview1"
     pagecolor="#ffffff"
     bordercolor="#000000"
     borderopacity="0.25"
     inkscape:showpageshadow="2"
     inkscape:pageopacity="0.0"
     inkscape:pagecheckerboard="0"
     inkscape:deskcolor="#d1d1d1"
     inkscape:zoom="0.7875"
     inkscape:cx="183.49206"
     inkscape:cy="227.30159"
     inkscape:window-width="3840"
     inkscape:window-height="2054"
     inkscape:window-x="-11"
     inkscape:window-y="-11"
     inkscape:window-maximized="1"
     inkscape:current-layer="svg1"
     showguides="false"
     showgrid="true">
    <inkscape:grid
       id="grid19"
       units="px"
       originx="0"
       originy="0"
       spacingx="26.25"
       spacingy="26.25"
       empcolor="#006ba0"
       empopacity="0.30196078"
       color="#004669"
       opacity="0.14901961"
       empspacing="5"
       enabled="true"
       visible="true" />
  </sodipodi:namedview>
  <path
     id="rect1"
     style="fill:#0085cc"
     d="M 0,0 H 630 V 630 H 0 Z" />
  <path
     d="M 161.57272,78.651479 H 91.850855 V 282.25104 h 54.195565 v -65.62058 h 20.79938 c 47.75069,0 81.14687,-23.14297 81.14687,-70.60071 0,-45.11415 -32.81028,-67.378271 -86.41995,-67.378271 z m 0.29295,99.309711 h -15.81925 v -61.22634 h 14.64745 c 21.67823,0 31.93144,10.25321 31.93144,29.58785 0,22.55707 -11.13206,31.63849 -30.75964,31.63849 z"
     id="path258"
     style="font-weight:800;font-size:292.949px;font-family:'Fira Sans';-inkscape-font-specification:'Fira Sans, Ultra-Bold';font-variant-position:super;letter-spacing:5.41321px;white-space:pre;fill:#fafafa;stroke-width:24.4124" />
  <path
     d="m 361.21141,73.378397 c -55.07441,0 -94.62253,38.669273 -94.62253,106.633433 0,70.01482 37.79043,107.51229 95.50138,107.51229 28.1231,0 50.97313,-12.88976 65.32763,-27.24426 l -24.02182,-30.46669 c -12.30386,9.66731 -23.72887,16.69809 -38.96222,16.69809 -25.48656,0 -41.59876,-20.50643 -41.59876,-66.49943 0,-46.57889 16.40515,-67.08532 41.01286,-67.08532 13.76861,0 24.60772,5.27308 35.73978,13.76861 L 425.0743,96.521368 C 407.7903,81.873918 387.86977,73.378397 361.21141,73.378397 Z"
     id="path255"
     style="font-weight:800;font-size:292.949px;font-family:'Fira Sans';-inkscape-font-specification:'Fira Sans, Ultra-Bold';font-variant-position:super;letter-spacing:5.41321px;white-space:pre;fill:#fafafa;stroke-width:24.4124" />
  <path
     d="m 210.49513,551 h 60.34749 l -50.68017,-84.95521 c 25.48656,-13.47566 37.49747,-29.00195 37.49747,-55.36736 0,-43.35646 -28.709,-63.27699 -85.54111,-63.27699 H 101.5181 V 551 h 54.19556 v -74.99495 h 14.9404 z M 155.71366,385.19086 h 15.23335 c 20.50643,0 31.0526,7.90963 31.0526,25.48657 0,19.62758 -9.66732,28.41605 -28.12311,28.41605 h -18.16284 z"
     id="path252"
     style="font-weight:800;font-size:292.949px;font-family:'Fira Sans';-inkscape-font-specification:'Fira Sans, Ultra-Bold';font-variant-position:super;letter-spacing:5.41321px;white-space:pre;fill:#fafafa;stroke-width:24.4124" />
  <path
     d="M 417.75072,347.40044 H 288.56021 V 551 h 128.31167 v -38.37632 h -74.1161 v -46.28594 h 60.64044 v -37.20453 h -60.64044 v -43.35645 h 69.42891 z"
     id="path249"
     style="font-weight:800;font-size:292.949px;font-family:'Fira Sans';-inkscape-font-specification:'Fira Sans, Ultra-Bold';font-variant-position:super;letter-spacing:5.41321px;white-space:pre;fill:#fafafa;stroke-width:24.4124" />
  <path
     d="m 502.22738,342.30523 c -26.81772,0 -47.02285,12.49044 -59.88066,29.38928 l 26.81772,21.30723 c 8.81678,-10.65362 16.89883,-15.42938 27.55245,-15.42938 10.65361,0 16.89883,5.87786 16.89883,15.79674 0,15.06201 -11.75571,28.28718 -64.65641,74.94266 V 501.3747 H 561.3733 l 4.77576,-36.00186 h -63.55432 c 50.32915,-38.9408 60.24803,-55.1049 60.24803,-76.41213 0,-23.87879 -19.83777,-46.65548 -60.61539,-46.65548 z"
     id="path246"
     style="font-weight:800;font-size:367.366px;font-family:'Fira Sans';-inkscape-font-specification:'Fira Sans, Ultra-Bold';font-variant-position:super;letter-spacing:33.9417px;white-space:pre;fill:#fafafa;stroke-width:30.6138" />
</svg>
